<svg width="33" height="59" viewBox="0 0 33 59" fill="none" xmlns="http://www.w3.org/2000/svg">
<path d="M14.1865 55.4125C14.1865 56.8918 12.9146 58.1354 11.2897 58.1354C9.66469 58.1354 8.39282 56.8918 8.39282 55.4125C8.39282 53.9331 9.66469 52.6895 11.2897 52.6895C12.9146 52.6895 14.1865 53.9331 14.1865 55.4125Z" fill="#EE24FF" stroke="black"/>
<path d="M6.32176 3.68932C9.51583 1.27318 13.5954 0.157016 17.6625 0.592299C21.9017 1.046 25.7798 3.12649 28.355 6.07022C30.9271 9.01035 32.182 12.786 31.249 16.662C30.8173 18.4554 29.665 20.3402 28.0591 22.4125C26.9111 23.894 25.559 25.4378 24.1122 27.0896C23.5363 27.7472 22.9454 28.422 22.3463 29.1167C18.3134 33.7939 13.9781 39.3053 11.8738 46.1838C8.05954 42.4894 5.05674 36.5269 3.09284 30.4098C1.03007 23.9848 0.147533 17.4968 0.62798 13.4557C1.08408 9.61928 3.12854 6.10481 6.32176 3.68932Z" fill="#EE24FF" stroke="black"/>
<path d="M20.7652 13.1102C20.7652 15.5272 18.6922 17.5308 16.079 17.5308C13.4658 17.5308 11.3928 15.5272 11.3928 13.1102C11.3928 10.6932 13.4658 8.68954 16.079 8.68954C18.6922 8.68954 20.7652 10.6932 20.7652 13.1102Z" fill="white" stroke="black"/>
</svg>
